<svg xmlns="http://www.w3.org/2000/svg" version="1.1" xmlns:xlink="http://www.w3.org/1999/xlink" xmlns:svgjs="http://svgjs.dev/svgjs" width="1500" height="1500" viewBox="0 0 1500 1500"><rect width="1500" height="1500" fill="#ffffff"></rect><g transform="matrix(0.6666666666666666,0,0,0.6666666666666666,249.39393939393938,641.6828238530319)"><svg viewBox="0 0 396 86" data-background-color="#ffffff" preserveAspectRatio="xMidYMid meet" height="325" width="1500" xmlns="http://www.w3.org/2000/svg" xmlns:xlink="http://www.w3.org/1999/xlink"><g id="tight-bounds" transform="matrix(1,0,0,1,0.2400000000000091,-0.006413160126498951)"><svg viewBox="0 0 395.52 86.01282632025298" height="86.01282632025298" width="395.52"><g><svg viewBox="0 0 395.52 86.01282632025298" height="86.01282632025298" width="395.52"><g><svg viewBox="0 0 534.7263282005944 116.28570690833413" height="86.01282632025298" width="395.52"><g transform="matrix(1,0,0,1,0,16.07132418197672)"><svg viewBox="0 0 395.52 84.1430585443807" height="84.1430585443807" width="395.52"><g id="textblocktransform"><svg viewBox="0 0 395.52 84.1430585443807" height="84.1430585443807" width="395.52" id="textblock"><g><svg viewBox="0 0 395.52 55.480180995475116" height="55.480180995475116" width="395.52"><g transform="matrix(1,0,0,1,0,0)"><svg width="395.52" viewBox="2.3 -37.9 276.21999999999997 38.75" height="55.480180995475116" data-palette-color="#840028"><path d="M11.05-34.65Q15.55-34.65 18.78-33.33 22-32 24.03-28.23 26.05-24.45 26.05-17.5L26.05-17.5Q26.05-7.75 22.13-3.88 18.2 0 11.6 0L11.6 0 2.3 0 2.3-34.65 11.05-34.65ZM12.05-29L10.15-29 10.15-5.7 12.05-5.7Q14.05-5.7 15.33-6.73 16.6-7.75 17.3-10.33 18-12.9 18-17.5L18-17.5Q18-22.15 17.28-24.65 16.55-27.15 15.28-28.08 14-29 12.05-29L12.05-29ZM29.75-34.65L37.6-34.65 37.6-6.2 48.5-6.2 47.7 0 29.75 0 29.75-34.65ZM60.8-35.5Q64.05-35.5 66.52-34.4 69-33.3 71.05-31.1L71.05-31.1 67.59-27Q64.59-29.75 61.65-29.75L61.65-29.75Q59.95-29.75 59-28.75 58.05-27.75 58.05-26.1L58.05-26.1Q58.05-24.5 59.15-23.48 60.25-22.45 63.4-21.1L63.4-21.1Q66.3-19.8 68.09-18.43 69.9-17.05 70.82-15.05 71.75-13.05 71.75-10.1L71.75-10.1Q71.75-6.95 70.32-4.45 68.9-1.95 66.25-0.55 63.6 0.85 60.05 0.85L60.05 0.85Q56.35 0.85 53.65-0.45 50.95-1.75 48.8-4.05L48.8-4.05 52.55-8.2Q54.35-6.6 55.97-5.78 57.6-4.95 59.45-4.95L59.45-4.95Q61.5-4.95 62.55-6.18 63.6-7.4 63.6-9.5L63.6-9.5Q63.6-11.4 62.55-12.63 61.5-13.85 58.75-14.95L58.75-14.95Q53.95-16.95 51.95-19.38 49.95-21.8 49.95-25.5L49.95-25.5Q49.95-28.45 51.35-30.73 52.75-33 55.22-34.25 57.7-35.5 60.8-35.5L60.8-35.5ZM72.84-34.65L95.19-34.65 94.39-28.65 87.74-28.65 87.74 0 79.89 0 79.89-28.65 72.84-28.65 72.84-34.65ZM117.54-13.8Q117.54-12.2 117.39-11.05L117.39-11.05 103.89-11.05Q104.14-7.45 105.22-6.08 106.29-4.7 108.34-4.7L108.34-4.7Q109.69-4.7 110.94-5.23 112.19-5.75 113.64-6.85L113.64-6.85 116.74-2.75Q113.04 0.85 107.79 0.85L107.79 0.85Q102.19 0.85 99.29-2.83 96.39-6.5 96.39-13.1L96.39-13.1Q96.39-19.7 99.17-23.55 101.94-27.4 107.09-27.4L107.09-27.4Q111.99-27.4 114.77-23.93 117.54-20.45 117.54-13.8L117.54-13.8ZM110.19-15.6L110.19-15.95Q110.19-19.35 109.52-20.88 108.84-22.4 107.14-22.4L107.14-22.4Q105.64-22.4 104.87-20.93 104.09-19.45 103.89-15.6L103.89-15.6 110.19-15.6ZM131.19-27.4Q133.49-27.4 135.34-26.6 137.19-25.8 138.79-24.15L138.79-24.15 135.69-20Q133.64-21.65 131.79-21.65L131.79-21.65Q129.74-21.65 128.74-19.78 127.74-17.9 127.74-13.1L127.74-13.1Q127.74-8.55 128.79-6.8 129.84-5.05 131.74-5.05L131.74-5.05Q132.74-5.05 133.59-5.4 134.44-5.75 135.54-6.6L135.54-6.6 138.79-2.25Q135.54 0.85 131.29 0.85L131.29 0.85Q125.89 0.85 122.89-2.68 119.89-6.2 119.89-13.05L119.89-13.05Q119.89-17.5 121.26-20.73 122.64-23.95 125.19-25.68 127.74-27.4 131.19-27.4L131.19-27.4ZM154.49-27.4Q157.34-27.4 158.96-25.35 160.59-23.3 160.59-19.85L160.59-19.85 160.59 0 153.04 0 153.04-19.05Q153.04-21.65 151.59-21.65L151.59-21.65Q150.14-21.65 148.44-18.45L148.44-18.45 148.44 0 140.89 0 140.89-37.1 148.44-37.9 148.44-23.75Q149.69-25.65 151.14-26.53 152.59-27.4 154.49-27.4L154.49-27.4ZM187.68-34.65L187.68 0 177.98 0 170.68-27.45Q171.18-23.1 171.43-20.18 171.68-17.25 171.68-13.1L171.68-13.1 171.68 0 164.93 0 164.93-34.65 174.63-34.65 181.93-7.2Q180.88-14.1 180.88-20.15L180.88-20.15 180.88-34.65 187.68-34.65ZM212.43-13.8Q212.43-12.2 212.28-11.05L212.28-11.05 198.78-11.05Q199.03-7.45 200.11-6.08 201.18-4.7 203.23-4.7L203.23-4.7Q204.58-4.7 205.83-5.23 207.08-5.75 208.53-6.85L208.53-6.85 211.63-2.75Q207.93 0.85 202.68 0.85L202.68 0.85Q197.08 0.85 194.18-2.83 191.28-6.5 191.28-13.1L191.28-13.1Q191.28-19.7 194.06-23.55 196.83-27.4 201.98-27.4L201.98-27.4Q206.88-27.4 209.66-23.93 212.43-20.45 212.43-13.8L212.43-13.8ZM205.08-15.6L205.08-15.95Q205.08-19.35 204.41-20.88 203.73-22.4 202.03-22.4L202.03-22.4Q200.53-22.4 199.76-20.93 198.98-19.45 198.78-15.6L198.78-15.6 205.08-15.6ZM234.58-26.55L228.78-14.2 235.73 0 227.83 0 224.18-10.1 220.73 0 212.98 0 219.83-13.95 213.58-26.55 221.38-26.55 224.28-17.85 227.03-26.55 234.58-26.55ZM256.78-26.55L256.78 0 250.18 0 249.88-3.05Q247.48 0.85 243.53 0.85L243.53 0.85Q240.63 0.85 238.95-1.25 237.28-3.35 237.28-6.8L237.28-6.8 237.28-26.55 244.83-26.55 244.83-7.1Q244.83-5.95 245.23-5.35 245.63-4.75 246.38-4.75L246.38-4.75Q247.98-4.75 249.23-7.55L249.23-7.55 249.23-26.55 256.78-26.55ZM269.37-27.4Q271.82-27.4 273.97-26.55 276.12-25.7 277.72-24.15L277.72-24.15 274.97-20.1Q272.22-22 270.02-22L270.02-22Q268.82-22 268.15-21.4 267.47-20.8 267.47-19.75L267.47-19.75Q267.47-18.6 268.32-17.88 269.17-17.15 271.97-16L271.97-16Q275.32-14.6 276.92-12.75 278.52-10.9 278.52-7.8L278.52-7.8Q278.52-3.8 275.7-1.48 272.87 0.85 268.37 0.85L268.37 0.85Q265.57 0.85 263.12-0.18 260.67-1.2 258.92-3.05L258.92-3.05 262.47-6.95Q265.47-4.5 267.97-4.5L267.97-4.5Q269.32-4.5 270.1-5.2 270.87-5.9 270.87-7.15L270.87-7.15Q270.87-8.55 270-9.38 269.12-10.2 266.42-11.3L266.42-11.3Q263.02-12.7 261.52-14.53 260.02-16.35 260.02-19.2L260.02-19.2Q260.02-22.8 262.52-25.1 265.02-27.4 269.37-27.4L269.37-27.4Z" opacity="1" transform="matrix(1,0,0,1,0,0)" fill="#000000" class="wordmark-text-0" data-fill-palette-color="primary" id="text-0"></path></svg></g></svg></g><g transform="matrix(1,0,0,1,19.77600000000001,68.5777202041629)"><svg viewBox="0 0 375.74399999999997 15.5653383402178" height="15.5653383402178" width="375.74399999999997"><g transform="matrix(1,0,0,1,0,0)"><svg width="375.74399999999997" viewBox="6.27 -41.99 1235.17 51.17" height="15.5653383402178" data-palette-color="#840028"><path d="M6.27 0L6.27-37.35 10.4-37.35 10.4 0 6.27 0ZM35.86-25.73L35.86-25.73Q31.1-25.73 26.17-22.92L26.17-22.92 26.17 0 22.12 0 22.12-29.05 25.68-29.05 26.07-26.05Q28.73-28.22 32.69-29.15L32.69-29.15Q34.3-29.54 36.47-29.54 38.64-29.54 40.31-29.04 41.97-28.54 42.94-27.44L42.94-27.44Q44.72-25.46 44.72-20.24L44.72-20.24 44.72 0 40.62 0 40.62-19.48Q40.62-23 39.94-24.01 39.26-25.02 38.32-25.38 37.38-25.73 35.86-25.73ZM80.8-4.57L82.19-1.39Q78.22 0.49 74.85 0.49L74.85 0.49Q68.74 0.49 67.91-4.74L67.91-4.74Q67.72-5.98 67.72-8.35L67.72-8.35 67.72-25.66 64.2-25.66 64.2-28.66 67.72-29.05 68.35-35.69 71.75-35.69 71.75-29.05 80.22-29.05 80.22-25.66 71.75-25.66 71.75-8.42Q71.75-5.42 72.18-4.59L72.18-4.59Q72.99-3.08 75.41-3.08 77.82-3.08 80.8-4.57L80.8-4.57ZM102.46-25.76L102.46-25.76Q97.6-25.76 92.81-22.95L92.81-22.95 92.81 0 88.76 0 88.76-41.55 92.71-41.94 92.71-26.05Q95.23-28.2 99.26-29.15L99.26-29.15Q100.87-29.54 103.07-29.54 105.26-29.54 106.92-29.04 108.58-28.54 109.56-27.44L109.56-27.44Q111.32-25.46 111.32-20.24L111.32-20.24 111.32 0 107.22 0 107.22-19.51Q107.22-23.02 106.53-24.04 105.85-25.05 104.91-25.4 103.97-25.76 102.46-25.76ZM143.59-5.03L144.79-1.54Q139.73 0.49 133.63 0.49L133.63 0.49Q130.09 0.49 127.62-0.24L127.62-0.24Q123.69-1.37 122.4-4.88L122.4-4.88Q121.2-8.18 121.2-14.65L121.2-14.65 121.2-15.89Q121.2-23.63 124.43-26.76L124.43-26.76Q127.33-29.54 134.12-29.54L134.12-29.54Q140.73-29.54 143.15-26.27L143.15-26.27Q144.32-24.68 144.7-22.42 145.08-20.17 145.08-18.12L145.08-18.12Q145.08-14.92 144.93-13.16L144.93-13.16Q141.49-13.01 138.76-13.01L138.76-13.01Q138.76-13.01 134.83-13.01L134.83-13.01Q128.67-13.01 125.35-13.55L125.35-13.55Q125.35-7.93 126.77-5.71L126.77-5.71Q128.5-3 133.68-3 138.85-3 143.59-5.03L143.59-5.03ZM125.35-16.41L140.95-16.41 140.95-18.75Q140.95-22.58 139.47-24.22L139.47-24.22Q137.8-26.05 133.73-26.05L133.73-26.05Q128.84-26.05 127.06-23.93L127.06-23.93Q125.35-21.9 125.35-16.41L125.35-16.41ZM168.12 0L168.12-37.35 172.27-37.35 172.27-20.48 189.92-20.48 189.92-37.35 194.05-37.35 194.05 0 189.92 0 189.92-16.94 172.27-16.94 172.27 0 168.12 0ZM226.81-5.03L228.01-1.54Q222.95 0.49 216.85 0.49L216.85 0.49Q213.31 0.49 210.84-0.24L210.84-0.24Q206.91-1.37 205.62-4.88L205.62-4.88Q204.42-8.18 204.42-14.65L204.42-14.65 204.42-15.89Q204.42-23.63 207.65-26.76L207.65-26.76Q210.55-29.54 217.34-29.54L217.34-29.54Q223.95-29.54 226.37-26.27L226.37-26.27Q227.54-24.68 227.92-22.42 228.3-20.17 228.3-18.12L228.3-18.12Q228.3-14.92 228.15-13.16L228.15-13.16Q224.71-13.01 221.98-13.01L221.98-13.01Q221.98-13.01 218.05-13.01L218.05-13.01Q211.89-13.01 208.57-13.55L208.57-13.55Q208.57-7.93 209.99-5.71L209.99-5.71Q211.72-3 216.9-3 222.07-3 226.81-5.03L226.81-5.03ZM208.57-16.41L224.17-16.41 224.17-18.75Q224.17-22.58 222.69-24.22L222.69-24.22Q221.02-26.05 216.95-26.05L216.95-26.05Q212.06-26.05 210.28-23.93L210.28-23.93Q208.57-21.9 208.57-16.41L208.57-16.41ZM260.79-19.41L260.79-10.3Q260.79-5.44 261.26-0.2L261.26-0.2 257.64 0.1 257.03-3.3Q253.93-0.81 248.83 0.17L248.83 0.17Q247.17 0.49 245.88 0.49 244.58 0.49 243.59 0.37 242.6 0.24 241.69-0.11 240.77-0.46 239.99-1.1 239.21-1.73 238.62-2.78L238.62-2.78Q237.38-5 237.38-8.12 237.38-11.23 237.83-12.95 238.28-14.67 239.33-15.82L239.33-15.82Q241.41-18.09 246.32-18.09 251.22-18.09 256.79-16.24L256.79-16.24 256.79-19.41Q256.79-24.71 252.42-25.68L252.42-25.68Q251-26 249.17-26L249.17-26Q245-26 240.5-24.34L240.5-24.34 239.6-27.86Q240.85-28.69 245.95-29.35L245.95-29.35Q247.56-29.54 249.82-29.54 252.08-29.54 254.25-29 256.42-28.47 257.86-27.25L257.86-27.25Q260.79-24.83 260.79-19.41L260.79-19.41ZM256.69-13.18L256.69-13.18Q250.98-14.62 246.14-14.62L246.14-14.62Q243.17-14.62 242.19-12.92L242.19-12.92Q241.53-11.72 241.53-9.38 241.53-7.03 241.79-5.98 242.04-4.93 242.63-4.25L242.63-4.25Q243.78-2.95 246.41-2.95L246.41-2.95Q250.54-2.95 254.59-5.08L254.59-5.08Q255.84-5.71 256.84-6.49L256.84-6.49Q256.69-9.13 256.69-13.18ZM282.27-25.51L282.27-25.51Q279.15-25.51 275.9-22.39L275.9-22.39 275.9 0 271.85 0 271.85-29.05 275.41-29.05 275.81-25.2Q276.95-26.98 278.28-27.98 279.61-28.98 280.47-29.2L280.47-29.2Q281.69-29.54 282.79-29.54 283.89-29.54 285.55-29.1L285.55-29.1 285.18-25.22Q283.93-25.51 282.27-25.51ZM305.61-4.57L307-1.39Q303.02 0.49 299.66 0.49L299.66 0.49Q293.55 0.49 292.72-4.74L292.72-4.74Q292.53-5.98 292.53-8.35L292.53-8.35 292.53-25.66 289.01-25.66 289.01-28.66 292.53-29.05 293.16-35.69 296.55-35.69 296.55-29.05 305.03-29.05 305.03-25.66 296.55-25.66 296.55-8.42Q296.55-5.42 296.99-4.59L296.99-4.59Q297.8-3.08 300.22-3.08 302.63-3.08 305.61-4.57L305.61-4.57ZM325.16-14.45L325.16-14.45Q325.16-20 325.72-22.19 326.29-24.39 327.1-25.67 327.92-26.95 329.31-27.81L329.31-27.81Q332.1-29.54 337.54-29.54L337.54-29.54Q345.4-29.54 347.65-25.66L347.65-25.66Q348.99-23.32 349.19-19.04L349.19-19.04Q349.26-17.02 349.26-14.58 349.26-12.13 349.1-10.02 348.94-7.91 348.48-6.23 348.01-4.54 347.18-3.28 346.35-2.03 344.99-1.17L344.99-1.17Q342.3 0.49 337.15 0.49L337.15 0.49Q329.44 0.49 327.02-3.32L327.02-3.32Q325.53-5.69 325.28-9.96L325.28-9.96Q325.16-12.01 325.16-14.45ZM331.8-4.27Q332.68-3.61 334.01-3.28 335.34-2.95 337.65-2.95 339.96-2.95 341.53-3.61 343.11-4.27 343.9-5.73 344.69-7.18 344.9-9.5 345.11-11.82 345.11-14.89 345.11-17.97 344.93-20.02 344.74-22.07 344.01-23.41L344.01-23.41Q342.55-26.05 337.49-26.05L337.49-26.05Q332.15-26.05 330.53-23.41L330.53-23.41Q329.73-22.07 329.51-20 329.29-17.92 329.29-15.48 329.29-13.04 329.35-11.34 329.41-9.64 329.67-8.29 329.92-6.93 330.42-5.93 330.92-4.93 331.8-4.27ZM368.1-38.48Q366.22-38.48 365.25-37.66 364.27-36.84 364.27-34.44 364.27-32.03 365.17-29.05L365.17-29.05 372.08-29.05 372.08-25.66 365.13-25.66 365.13 0 361.2 0 361.2-25.66 356.34-25.66 356.34-28.66 361.15-29.05Q360.83-29.71 360.54-31.91 360.24-34.11 360.24-35.06L360.24-35.06Q360.24-41.99 368.35-41.99L368.35-41.99Q371.28-41.99 373.89-41.36L373.89-41.36 373.16-37.72Q369.98-38.48 368.1-38.48ZM393.44 0L393.44-37.35 397.57-37.35 397.57 0 393.44 0ZM423.03-25.73L423.03-25.73Q418.27-25.73 413.34-22.92L413.34-22.92 413.34 0 409.28 0 409.28-29.05 412.85-29.05 413.24-26.05Q415.9-28.22 419.85-29.15L419.85-29.15Q421.47-29.54 423.64-29.54 425.81-29.54 427.47-29.04 429.13-28.54 430.11-27.44L430.11-27.44Q431.89-25.46 431.89-20.24L431.89-20.24 431.89 0 427.79 0 427.79-19.48Q427.79-23 427.11-24.01 426.42-25.02 425.48-25.38 424.54-25.73 423.03-25.73ZM456.33-25.73L456.33-25.73Q451.57-25.73 446.63-22.92L446.63-22.92 446.63 0 442.58 0 442.58-29.05 446.15-29.05 446.54-26.05Q449.2-28.22 453.15-29.15L453.15-29.15Q454.76-29.54 456.94-29.54 459.11-29.54 460.77-29.04 462.43-28.54 463.41-27.44L463.41-27.44Q465.19-25.46 465.19-20.24L465.19-20.24 465.19 0 461.09 0 461.09-19.48Q461.09-23 460.4-24.01 459.72-25.02 458.78-25.38 457.84-25.73 456.33-25.73ZM475.03-14.45L475.03-14.45Q475.03-20 475.59-22.19 476.15-24.39 476.97-25.67 477.78-26.95 479.18-27.81L479.18-27.81Q481.96-29.54 487.4-29.54L487.4-29.54Q495.27-29.54 497.51-25.66L497.51-25.66Q498.85-23.32 499.05-19.04L499.05-19.04Q499.12-17.02 499.12-14.58 499.12-12.13 498.96-10.02 498.81-7.91 498.34-6.23 497.88-4.54 497.05-3.28 496.22-2.03 494.85-1.17L494.85-1.17Q492.16 0.49 487.01 0.49L487.01 0.49Q479.3 0.49 476.88-3.32L476.88-3.32Q475.39-5.69 475.15-9.96L475.15-9.96Q475.03-12.01 475.03-14.45ZM481.67-4.27Q482.55-3.61 483.88-3.28 485.21-2.95 487.51-2.95 489.82-2.95 491.4-3.61 492.97-4.27 493.76-5.73 494.56-7.18 494.76-9.5 494.97-11.82 494.97-14.89 494.97-17.97 494.79-20.02 494.61-22.07 493.87-23.41L493.87-23.41Q492.41-26.05 487.35-26.05L487.35-26.05Q482.01-26.05 480.4-23.41L480.4-23.41Q479.59-22.07 479.37-20 479.15-17.92 479.15-15.48 479.15-13.04 479.21-11.34 479.27-9.64 479.53-8.29 479.79-6.93 480.29-5.93 480.79-4.93 481.67-4.27ZM515.67 0L505.71-29.05 510.08-29.05 517.7-5.35 518.43-2.93 519.12-5.35 526.39-29.05 530.81-29.05 520.99 0 515.67 0ZM560.52-19.41L560.52-10.3Q560.52-5.44 560.98-0.2L560.98-0.2 557.37 0.1 556.76-3.3Q553.66-0.81 548.56 0.17L548.56 0.17Q546.9 0.49 545.6 0.49 544.31 0.49 543.32 0.37 542.33 0.24 541.41-0.11 540.5-0.46 539.72-1.1 538.94-1.73 538.35-2.78L538.35-2.78Q537.11-5 537.11-8.12 537.11-11.23 537.56-12.95 538.01-14.67 539.06-15.82L539.06-15.82Q541.13-18.09 546.04-18.09 550.95-18.09 556.51-16.24L556.51-16.24 556.51-19.41Q556.51-24.71 552.14-25.68L552.14-25.68Q550.73-26 548.9-26L548.9-26Q544.72-26 540.23-24.34L540.23-24.34 539.33-27.86Q540.57-28.69 545.68-29.35L545.68-29.35Q547.29-29.54 549.54-29.54 551.8-29.54 553.98-29 556.15-28.47 557.59-27.25L557.59-27.25Q560.52-24.83 560.52-19.41L560.52-19.41ZM556.42-13.18L556.42-13.18Q550.7-14.62 545.87-14.62L545.87-14.62Q542.89-14.62 541.92-12.92L541.92-12.92Q541.26-11.72 541.26-9.38 541.26-7.03 541.51-5.98 541.77-4.93 542.35-4.25L542.35-4.25Q543.5-2.95 546.14-2.95L546.14-2.95Q550.26-2.95 554.32-5.08L554.32-5.08Q555.56-5.71 556.56-6.49L556.56-6.49Q556.42-9.13 556.42-13.18ZM584.49-4.57L585.88-1.39Q581.9 0.49 578.53 0.49L578.53 0.49Q572.43 0.49 571.6-4.74L571.6-4.74Q571.4-5.98 571.4-8.35L571.4-8.35 571.4-25.66 567.89-25.66 567.89-28.66 571.4-29.05 572.04-35.69 575.43-35.69 575.43-29.05 583.9-29.05 583.9-25.66 575.43-25.66 575.43-8.42Q575.43-5.42 575.87-4.59L575.87-4.59Q576.68-3.08 579.1-3.08 581.51-3.08 584.49-4.57L584.49-4.57ZM595.33-36.01L595.33-36.01Q593.69-36.01 593.23-36.47L593.23-36.47Q592.5-37.23 592.5-38.56 592.5-39.89 592.65-40.47 592.81-41.04 593.13-41.36L593.13-41.36Q593.72-41.94 594.93-41.94 596.13-41.94 596.66-41.82 597.18-41.7 597.53-41.36L597.53-41.36Q598.11-40.77 598.11-39.44 598.11-38.11 597.98-37.54 597.84-36.96 597.53-36.62L597.53-36.62Q596.92-36.01 595.33-36.01ZM593.4 0L593.35-29.05 597.35-29.05 597.35 0 593.4 0ZM608.24-14.45L608.24-14.45Q608.24-20 608.8-22.19 609.36-24.39 610.18-25.67 611-26.95 612.39-27.81L612.39-27.81Q615.17-29.54 620.62-29.54L620.62-29.54Q628.48-29.54 630.73-25.66L630.73-25.66Q632.07-23.32 632.26-19.04L632.26-19.04Q632.34-17.02 632.34-14.58 632.34-12.13 632.18-10.02 632.02-7.91 631.56-6.23 631.09-4.54 630.26-3.28 629.43-2.03 628.06-1.17L628.06-1.17Q625.38 0.49 620.23 0.49L620.23 0.49Q612.51 0.49 610.1-3.32L610.1-3.32Q608.61-5.69 608.36-9.96L608.36-9.96Q608.24-12.01 608.24-14.45ZM614.88-4.27Q615.76-3.61 617.09-3.28 618.42-2.95 620.73-2.95 623.04-2.95 624.61-3.61 626.19-4.27 626.98-5.73 627.77-7.18 627.98-9.5 628.19-11.82 628.19-14.89 628.19-17.97 628-20.02 627.82-22.07 627.09-23.41L627.09-23.41Q625.62-26.05 620.57-26.05L620.57-26.05Q615.22-26.05 613.61-23.41L613.61-23.41Q612.81-22.07 612.59-20 612.37-17.92 612.37-15.48 612.37-13.04 612.43-11.34 612.49-9.64 612.75-8.29 613-6.93 613.5-5.93 614-4.93 614.88-4.27ZM656.11-25.73L656.11-25.73Q651.35-25.73 646.42-22.92L646.42-22.92 646.42 0 642.37 0 642.37-29.05 645.93-29.05 646.32-26.05Q648.99-28.22 652.94-29.15L652.94-29.15Q654.55-29.54 656.72-29.54 658.9-29.54 660.56-29.04 662.22-28.54 663.19-27.44L663.19-27.44Q664.98-25.46 664.98-20.24L664.98-20.24 664.98 0 660.87 0 660.87-19.48Q660.87-23 660.19-24.01 659.51-25.02 658.57-25.38 657.63-25.73 656.11-25.73ZM674.4-5.81L675.18-5.86Q675.77-5.91 676.28-5.91L676.28-5.91 677.23-5.91Q677.96-5.91 678.39-5.7 678.82-5.49 678.82-5.05L678.82-5.05Q678.82-4.44 678.62-3.59L678.62-3.59 675.42 9.18 672.2 9.18 674.4-5.81ZM700.96 0L700.96-37.13Q700.96-37.13 704.62-37.4L704.62-37.4Q710.11-37.84 713.38-37.84 716.65-37.84 718.61-37.59 720.56-37.33 722.04-36.71 723.51-36.08 724.55-35.01 725.59-33.94 726.25-32.28L726.25-32.28Q727.49-29.17 727.49-23.05L727.49-23.05 727.49-19.26Q727.49-12.01 726.42-8.25L726.42-8.25Q725.17-3.91 721.95-2L721.95-2Q718.63 0 712.21 0L712.21 0 700.96 0ZM721.68-31.42Q720.8-32.81 719.14-33.52 717.48-34.23 714.04-34.23 710.6-34.23 705.11-33.81L705.11-33.81 705.11-3.49 712.87-3.49Q717.41-3.49 719.61-4.98L719.61-4.98Q721.76-6.42 722.49-9.94L722.49-9.94Q723.12-12.82 723.12-19.26L723.12-19.26 723.12-23.07Q723.12-29.15 721.68-31.42L721.68-31.42ZM738.38 0L738.38-37.35 742.53-37.35 742.53-3.59 757.32-3.59 757.32 0 738.38 0ZM759.76-2.47L761.38-5.88Q766.92-2.95 772.22-2.95L772.22-2.95Q778.37-2.95 779.42-6.88L779.42-6.88Q779.76-8.18 779.76-9.86L779.76-9.86 779.76-10.82Q779.76-12.52 779.51-13.57 779.27-14.62 778.49-15.28L778.49-15.28Q777.22-16.38 772.48-17.11L772.48-17.11Q768.26-17.77 766.65-18.36 765.04-18.95 764-19.64 762.96-20.34 762.23-21.39L762.23-21.39Q760.72-23.58 760.72-27.47L760.72-27.47 760.72-27.71Q760.72-35.77 767.41-37.35L767.41-37.35Q769.53-37.84 772.22-37.84L772.22-37.84 772.53-37.84Q778.81-37.84 782.79-36.04L782.79-36.04 781.52-32.3Q776.71-34.38 772.65-34.38L772.65-34.38 772.43-34.38Q767.97-34.38 766.28-32.69L766.28-32.69Q764.87-31.27 764.87-27.78L764.87-27.78 764.87-27.69Q764.87-23.71 767.06-22.46L767.06-22.46Q768.55-21.66 772.4-21.04 776.24-20.43 778.12-20.01 780-19.58 781.32-18.6L781.32-18.6Q784.06-16.55 784.06-10.82L784.06-10.82 784.06-10.5Q784.06-1.73 777-0.05L777-0.05Q774.83 0.49 772.9 0.49 770.97 0.49 769.4 0.35 767.82 0.22 766.18-0.12L766.18-0.12Q762.35-0.9 759.76-2.47L759.76-2.47ZM797.09 0L797.09-33.74 787.13-33.74 787.13-37.35 811.54-37.35 811.54-33.74 801.24-33.74 801.24 0 797.09 0ZM838.84-5.03L840.03-1.54Q834.98 0.49 828.88 0.49L828.88 0.49Q825.34 0.49 822.87-0.24L822.87-0.24Q818.94-1.37 817.64-4.88L817.64-4.88Q816.45-8.18 816.45-14.65L816.45-14.65 816.45-15.89Q816.45-23.63 819.67-26.76L819.67-26.76Q822.58-29.54 829.36-29.54L829.36-29.54Q835.98-29.54 838.4-26.27L838.4-26.27Q839.57-24.68 839.95-22.42 840.33-20.17 840.33-18.12L840.33-18.12Q840.33-14.92 840.18-13.16L840.18-13.16Q836.74-13.01 834-13.01L834-13.01Q834-13.01 830.07-13.01L830.07-13.01Q823.92-13.01 820.6-13.55L820.6-13.55Q820.6-7.93 822.01-5.71L822.01-5.71Q823.75-3 828.92-3 834.1-3 838.84-5.03L838.84-5.03ZM820.6-16.41L836.2-16.41 836.2-18.75Q836.2-22.58 834.71-24.22L834.71-24.22Q833.05-26.05 828.97-26.05L828.97-26.05Q824.09-26.05 822.31-23.93L822.31-23.93Q820.6-21.9 820.6-16.41L820.6-16.41ZM869.55-4.59L870.77-1.29Q867.37 0.49 861.47 0.49L861.47 0.49Q857.97 0.49 856.34-0.05L856.34-0.05Q852.16-1.46 850.87-4.86L850.87-4.86Q849.97-7.23 849.82-9.96 849.67-12.7 849.67-14.58 849.67-16.46 849.77-18.25 849.87-20.04 850.25-21.7 850.63-23.36 851.41-24.79 852.19-26.22 853.53-27.29L853.53-27.29Q856.44-29.54 861.88-29.54L861.88-29.54Q865.88-29.54 869.25-28.37L869.25-28.37Q870.16-28.08 870.62-27.81L870.62-27.81 869.4-24.19Q864.71-26 861.72-26 858.73-26 857.33-25.32 855.92-24.63 855.14-23.24L855.14-23.24Q853.82-20.85 853.82-14.45L853.82-14.45Q853.82-11.89 853.99-9.78 854.17-7.67 854.85-6.15L854.85-6.15Q856.29-3.03 860.79-3.03 865.3-3.03 869.55-4.59L869.55-4.59ZM893.49-25.76L893.49-25.76Q888.64-25.76 883.85-22.95L883.85-22.95 883.85 0 879.8 0 879.8-41.55 883.75-41.94 883.75-26.05Q886.27-28.2 890.3-29.15L890.3-29.15Q891.91-29.54 894.1-29.54 896.3-29.54 897.96-29.04 899.62-28.54 900.6-27.44L900.6-27.44Q902.36-25.46 902.36-20.24L902.36-20.24 902.36 0 898.25 0 898.25-19.51Q898.25-23.02 897.57-24.04 896.89-25.05 895.95-25.4 895.01-25.76 893.49-25.76ZM913.39 0L913.39-37.35 916.68-37.35 933.87-10.21 936.09-5.59 935.56-10.72 935.56-37.35 939.34-37.35 939.34 0 935.85 0 918.78-27.08 916.64-31.27 917.17-26.29 917.17 0 913.39 0ZM972.13-5.03L973.32-1.54Q968.27 0.49 962.17 0.49L962.17 0.49Q958.63 0.49 956.16-0.24L956.16-0.24Q952.23-1.37 950.94-4.88L950.94-4.88Q949.74-8.18 949.74-14.65L949.74-14.65 949.74-15.89Q949.74-23.63 952.96-26.76L952.96-26.76Q955.87-29.54 962.65-29.54L962.65-29.54Q969.27-29.54 971.69-26.27L971.69-26.27Q972.86-24.68 973.24-22.42 973.62-20.17 973.62-18.12L973.62-18.12Q973.62-14.92 973.47-13.16L973.47-13.16Q970.03-13.01 967.29-13.01L967.29-13.01Q967.29-13.01 963.36-13.01L963.36-13.01Q957.21-13.01 953.89-13.55L953.89-13.55Q953.89-7.93 955.31-5.71L955.31-5.71Q957.04-3 962.21-3 967.39-3 972.13-5.03L972.13-5.03ZM953.89-16.41L969.49-16.41 969.49-18.75Q969.49-22.58 968-24.22L968-24.22Q966.34-26.05 962.26-26.05L962.26-26.05Q957.38-26.05 955.6-23.93L955.6-23.93Q953.89-21.9 953.89-16.41L953.89-16.41ZM980.57 0L990.19-14.72 980.86-29.05 985.6-29.05 992.83-17.31 1000.18-29.05 1004.84-29.05 995.37-14.84 1005.4 0 1000.71 0 992.8-12.08 985.04 0 980.57 0ZM1034.96-29.05L1034.96-12.79Q1034.96-4.74 1035.43-0.2L1035.43-0.2 1031.79 0.1 1031.2-3.34Q1028.35-0.98 1024.54 0.07L1024.54 0.07Q1023.03 0.49 1020.94 0.49 1018.85 0.49 1017.2-0.01 1015.55-0.51 1014.58-1.61L1014.58-1.61Q1012.8-3.59 1012.8-8.81L1012.8-8.81 1012.8-29.05 1016.9-29.05 1016.9-9.47Q1016.9-5.96 1017.58-4.94 1018.26-3.93 1019.2-3.58 1020.14-3.22 1021.44-3.22 1022.73-3.22 1023.94-3.43 1025.15-3.64 1026.37-4.03L1026.37-4.03Q1028.93-4.86 1031.01-6.3L1031.01-6.3 1031.01-6.32Q1030.91-8.18 1030.91-13.55L1030.91-13.55 1030.91-29.05 1034.96-29.05ZM1044.58-2.39L1046.34-5.76Q1051.37-2.95 1056.45-2.95L1056.45-2.95Q1060.67-2.95 1061.4-5.96L1061.4-5.96Q1061.65-6.98 1061.65-8.46 1061.65-9.94 1061.3-10.75 1060.96-11.57 1060.16-11.98 1059.35-12.38 1058.02-12.57 1056.69-12.77 1054.64-13.12 1052.59-13.48 1050.88-13.92 1049.17-14.36 1047.97-15.19L1047.97-15.19Q1045.43-16.97 1045.53-21.19L1045.53-21.19 1045.53-21.8Q1045.53-26.25 1048.46-28.13L1048.46-28.13Q1051.29-29.98 1057.81-29.39L1057.81-29.39Q1062.26-28.98 1064.89-27.86L1064.89-27.86 1063.75-24.17Q1060.82-25.42 1056.71-25.98L1056.71-25.98Q1055.44-26.15 1054.33-26.15 1053.22-26.15 1052.32-25.98 1051.42-25.81 1050.81-25.34L1050.81-25.34Q1049.63-24.39 1049.59-21.8L1049.59-21.8Q1049.51-18.75 1051.29-17.92L1051.29-17.92Q1053-17.11 1055.35-16.81 1057.69-16.5 1059.18-16.27 1060.67-16.04 1061.89-15.65 1063.11-15.26 1063.99-14.4L1063.99-14.4Q1065.82-12.67 1065.77-8.37L1065.77-8.37Q1065.65-0.88 1059.52 0.17L1059.52 0.17Q1057.67 0.49 1055.81 0.49 1053.96 0.49 1052.4 0.26 1050.85 0.02 1049.44-0.39L1049.44-0.39Q1046.75-1.15 1044.58-2.39L1044.58-2.39ZM1111.03-27.78L1111.03-27.78Q1111.03-20.26 1105.34-19.51L1105.34-19.51 1105.34-19.43Q1108.86-19.17 1110.59-17.43L1110.59-17.43Q1112.59-15.38 1112.59-11.49 1112.59-7.59 1111.7-5.44 1110.81-3.3 1109.22-2.1L1109.22-2.1Q1106.51 0 1100.7 0L1100.7 0 1088.23 0 1088.23-37.23Q1094.99-37.87 1099.38-37.87 1103.78-37.87 1105.83-37.19 1107.88-36.52 1109.03-35.25L1109.03-35.25Q1111.03-33.03 1111.03-27.78ZM1092.38-20.68L1097.87-20.68Q1102.78-20.68 1104.68-22.07L1104.68-22.07Q1106.86-23.63 1106.86-27.88L1106.86-27.88 1106.86-28.39Q1106.86-31.67 1105.42-33.06L1105.42-33.06Q1103.97-34.42 1100.51-34.42L1100.51-34.42Q1097.6-34.42 1095.58-34.3L1095.58-34.3 1092.38-34.11 1092.38-20.68ZM1092.38-3.47L1101.22-3.47Q1104.8-3.47 1106.34-4.83L1106.34-4.83Q1108.27-6.57 1108.27-11.04L1108.27-11.04Q1108.27-16.21 1104.49-17.09L1104.49-17.09Q1103.34-17.36 1102-17.36L1102-17.36 1092.38-17.36 1092.38-3.47ZM1142.77-5.03L1143.96-1.54Q1138.91 0.49 1132.81 0.49L1132.81 0.49Q1129.27 0.49 1126.8-0.24L1126.8-0.24Q1122.87-1.37 1121.57-4.88L1121.57-4.88Q1120.38-8.18 1120.38-14.65L1120.38-14.65 1120.38-15.89Q1120.38-23.63 1123.6-26.76L1123.6-26.76Q1126.51-29.54 1133.29-29.54L1133.29-29.54Q1139.91-29.54 1142.33-26.27L1142.33-26.27Q1143.5-24.68 1143.88-22.42 1144.26-20.17 1144.26-18.12L1144.26-18.12Q1144.26-14.92 1144.11-13.16L1144.11-13.16Q1140.67-13.01 1137.93-13.01L1137.93-13.01Q1137.93-13.01 1134-13.01L1134-13.01Q1127.85-13.01 1124.53-13.55L1124.53-13.55Q1124.53-7.93 1125.94-5.71L1125.94-5.71Q1127.68-3 1132.85-3 1138.03-3 1142.77-5.03L1142.77-5.03ZM1124.53-16.41L1140.13-16.41 1140.13-18.75Q1140.13-22.58 1138.64-24.22L1138.64-24.22Q1136.98-26.05 1132.9-26.05L1132.9-26.05Q1128.02-26.05 1126.24-23.93L1126.24-23.93Q1124.53-21.9 1124.53-16.41L1124.53-16.41ZM1176.75-19.41L1176.75-10.3Q1176.75-5.44 1177.21-0.2L1177.21-0.2 1173.6 0.1 1172.99-3.3Q1169.89-0.81 1164.79 0.17L1164.79 0.17Q1163.12 0.49 1161.83 0.49 1160.54 0.49 1159.55 0.37 1158.56 0.24 1157.64-0.11 1156.73-0.46 1155.95-1.1 1155.17-1.73 1154.58-2.78L1154.58-2.78Q1153.33-5 1153.33-8.12 1153.33-11.23 1153.79-12.95 1154.24-14.67 1155.29-15.82L1155.29-15.82Q1157.36-18.09 1162.27-18.09 1167.18-18.09 1172.74-16.24L1172.74-16.24 1172.74-19.41Q1172.74-24.71 1168.37-25.68L1168.37-25.68Q1166.96-26 1165.13-26L1165.13-26Q1160.95-26 1156.46-24.34L1156.46-24.34 1155.56-27.86Q1156.8-28.69 1161.9-29.35L1161.9-29.35Q1163.52-29.54 1165.77-29.54 1168.03-29.54 1170.2-29 1172.38-28.47 1173.82-27.25L1173.82-27.25Q1176.75-24.83 1176.75-19.41L1176.75-19.41ZM1172.65-13.18L1172.65-13.18Q1166.93-14.62 1162.1-14.62L1162.1-14.62Q1159.12-14.62 1158.14-12.92L1158.14-12.92Q1157.49-11.72 1157.49-9.38 1157.49-7.03 1157.74-5.98 1158-4.93 1158.58-4.25L1158.58-4.25Q1159.73-2.95 1162.37-2.95L1162.37-2.95Q1166.49-2.95 1170.55-5.08L1170.55-5.08Q1171.79-5.71 1172.79-6.49L1172.79-6.49Q1172.65-9.13 1172.65-13.18ZM1200.72-4.57L1202.11-1.39Q1198.13 0.49 1194.76 0.49L1194.76 0.49Q1188.66 0.49 1187.83-4.74L1187.83-4.74Q1187.63-5.98 1187.63-8.35L1187.63-8.35 1187.63-25.66 1184.12-25.66 1184.12-28.66 1187.63-29.05 1188.27-35.69 1191.66-35.69 1191.66-29.05 1200.13-29.05 1200.13-25.66 1191.66-25.66 1191.66-8.42Q1191.66-5.42 1192.1-4.59L1192.1-4.59Q1192.91-3.08 1195.32-3.08 1197.74-3.08 1200.72-4.57L1200.72-4.57ZM1206.94-2.39L1208.7-5.76Q1213.73-2.95 1218.81-2.95L1218.81-2.95Q1223.03-2.95 1223.76-5.96L1223.76-5.96Q1224.01-6.98 1224.01-8.46 1224.01-9.94 1223.67-10.75 1223.32-11.57 1222.52-11.98 1221.71-12.38 1220.38-12.57 1219.05-12.77 1217-13.12 1214.95-13.48 1213.24-13.92 1211.53-14.36 1210.34-15.19L1210.34-15.19Q1207.8-16.97 1207.9-21.19L1207.9-21.19 1207.9-21.8Q1207.9-26.25 1210.82-28.13L1210.82-28.13Q1213.66-29.98 1220.18-29.39L1220.18-29.39Q1224.62-28.98 1227.26-27.86L1227.26-27.86 1226.11-24.17Q1223.18-25.42 1219.08-25.98L1219.08-25.98Q1217.81-26.15 1216.7-26.15 1215.59-26.15 1214.68-25.98 1213.78-25.81 1213.17-25.34L1213.17-25.34Q1212-24.39 1211.95-21.8L1211.95-21.8Q1211.87-18.75 1213.66-17.92L1213.66-17.92Q1215.37-17.11 1217.71-16.81 1220.05-16.5 1221.54-16.27 1223.03-16.04 1224.25-15.65 1225.47-15.26 1226.35-14.4L1226.35-14.4Q1228.18-12.67 1228.13-8.37L1228.13-8.37Q1228.01-0.88 1221.88 0.17L1221.88 0.17Q1220.03 0.49 1218.17 0.49 1216.32 0.49 1214.77 0.26 1213.22 0.02 1211.8-0.39L1211.8-0.39Q1209.12-1.15 1206.94-2.39L1206.94-2.39ZM1236.45-0.04Q1235.99-0.54 1235.87-1.16 1235.75-1.78 1235.75-2.75 1235.75-3.71 1235.88-4.32 1236.02-4.93 1236.36-5.27L1236.36-5.27Q1236.92-5.91 1238.19-5.91 1239.46-5.91 1240.01-5.77 1240.56-5.64 1240.88-5.27L1240.88-5.27Q1241.44-4.66 1241.44-2.76L1241.44-2.76Q1241.44-0.85 1241-0.34L1241-0.34Q1240.31 0.46 1238.61 0.46L1238.61 0.46Q1236.9 0.46 1236.45-0.04Z" opacity="1" transform="matrix(1,0,0,1,0,0)" fill="#000000" class="slogan-text-1" data-fill-palette-color="secondary" id="text-1"></path></svg></g></svg></g></svg></g></svg></g><g transform="matrix(1,0,0,1,408.6175392086878,0)"><svg viewBox="0 0 126.10878899190658 116.28570690833413" height="116.28570690833413" width="126.10878899190658"><g><svg xmlns="http://www.w3.org/2000/svg" xmlns:xlink="http://www.w3.org/1999/xlink" version="1.1" x="0" y="0" viewBox="50 66 412.1 380" style="enable-background:new 0 0 512 512;" xml:space="preserve" height="116.28570690833413" width="126.10878899190658" class="icon-icon-0" data-fill-palette-color="accent" id="icon-0"><g fill="#840028" data-fill-palette-color="accent"><path d="M50 326.9c0 12.8 10.7 23.1 23.6 23.1h364.9c12.8 0 23.6-10.3 23.6-23.1V306H50V326.9z" fill="#000000" data-fill-palette-color="accent"></path><path d="M263.2 179.2C263.2 179.2 263.2 179.2 263.2 179.2c0-4.5-3.7-8.2-8.2-8.2-4.5 0-8.2 3.7-8.2 8.2s3.7 8.2 8.2 8.2C259.6 187.4 263.2 183.7 263.2 179.2z" fill="#000000" data-fill-palette-color="accent"></path><path d="M255.1 116.1c-4.5 0-8.2 3.7-8.2 8.2 0 4.5 3.7 8.2 8.2 8.2 4.5 0 8.2-3.7 8.2-8.2 0 0 0 0 0 0C263.2 119.8 259.6 116.1 255.1 116.1z" fill="#000000" data-fill-palette-color="accent"></path><path d="M255.1 227.7c-4.5 0-8.2 3.7-8.2 8.2 0 4.5 3.7 8.2 8.2 8.2 4.5 0 8.2-3.7 8.2-8.2C263.2 231.4 259.6 227.7 255.1 227.7z" fill="#000000" data-fill-palette-color="accent"></path><path d="M200.2 171c-4.5 0-8.2 3.7-8.2 8.2s3.7 8.2 8.2 8.2c4.5 0 8.2-3.7 8.2-8.2 0 0 0 0 0 0C208.4 174.6 204.7 171 200.2 171z" fill="#000000" data-fill-palette-color="accent"></path><path d="M200.2 132.5c4.5 0 8.2-3.7 8.2-8.2 0-4.5-3.7-8.2-8.2-8.2-4.5 0-8.2 3.7-8.2 8.2 0 0 0 0 0 0C192 128.8 195.7 132.5 200.2 132.5z" fill="#000000" data-fill-palette-color="accent"></path><path d="M200.2 227.7c-4.5 0-8.2 3.7-8.2 8.2 0 4.5 3.7 8.2 8.2 8.2 4.5 0 8.2-3.7 8.2-8.2 0 0 0 0 0 0C208.4 231.4 204.7 227.7 200.2 227.7z" fill="#000000" data-fill-palette-color="accent"></path><path d="M438.4 66H73.6C60.7 66 50.2 76.4 50 89.2V294h412V89.2C461.8 76.4 451.3 66 438.4 66zM291.6 124.3c0-11.1 9-20.2 20.2-20.2 11.2 0 20.2 9 20.2 20.2s-9 20.2-20.2 20.2S291.6 135.5 291.6 124.3C291.6 124.3 291.6 124.3 291.6 124.3zM200.2 256.1c-11.2 0-20.2-9-20.2-20.2 0-11.2 9-20.2 20.2-20.2 11.2 0 20.2 9 20.2 20.2C220.4 247.1 211.3 256.1 200.2 256.1zM275.2 235.9c0 11.2-9 20.2-20.1 20.3-11.2 0-20.2-9-20.3-20.1 0-1.8 0.2-3.6 0.7-5.3L203.8 199c-11 2-21.5-5.2-23.6-16.2-0.2-1.2-0.3-2.4-0.3-3.7 0-8.7 6.1-16.1 13.1-18.9v-17c-7-2.8-13.1-10.2-13.1-18.9 0-11.1 9-20.2 20.2-20.2s20.2 9 20.2 20.2c0 0 0 0 0 0 0.1 9.3-6.2 17.3-15.2 19.5v15.8c10.8 2.7 17.4 13.7 14.7 24.5-0.8 3.4-2.5 6.4-4.9 8.9l27.4 27.3c2.3-1.9 5-3.3 7.9-4v-17.7c-10.8-2.8-17.3-13.8-14.5-24.6 2.8-10.8 13.8-17.3 24.6-14.5 10.8 2.8 17.3 13.8 14.5 24.6-1.7 6.4-6.4 11.6-12.6 13.9V217C269.9 219.9 275.2 227.5 275.2 235.9L275.2 235.9zM319 198.1V217c7 2.8 13.1 10.2 13.1 18.9 0 11.1-9 20.2-20.2 20.2-11.1 0-20.2-9-20.2-20.2 0 0 0 0 0 0-0.1-9.3 6.2-17.3 15.2-19.5v-17.7c-10.8-2.7-17.4-13.7-14.6-24.5 0.3-1.3 0.8-2.6 1.4-3.9l-28.5-28.6c-9.7 5.7-22.1 2.5-27.8-7.1-5.7-9.7-2.5-22.1 7.1-27.8 9.7-5.7 22.1-2.5 27.8 7.1 3.4 5.8 3.8 12.9 0.9 18.9l28.6 28.8c3-1.7 6.4-2.6 9.9-2.6 11.2 0 20.2 9 20.3 20.2C332.1 187.8 326 195.3 319 198.1z" fill="#000000" data-fill-palette-color="accent"></path><path d="M311.8 132.5c4.5 0 8.2-3.7 8.2-8.2 0-4.5-3.7-8.2-8.2-8.2-4.5 0-8.2 3.7-8.2 8.2 0 0 0 0 0 0C303.6 128.8 307.3 132.5 311.8 132.5z" fill="#000000" data-fill-palette-color="accent"></path><path d="M311.8 171c-4.5 0-8.2 3.7-8.2 8.2s3.7 8.2 8.2 8.2 8.2-3.7 8.2-8.2c0 0 0 0 0 0C320 174.6 316.3 171 311.8 171z" fill="#000000" data-fill-palette-color="accent"></path><path d="M311.8 227.7c-4.5 0-8.2 3.7-8.2 8.2 0 4.5 3.7 8.2 8.2 8.2 4.5 0 8.2-3.7 8.2-8.2C320 231.4 316.3 227.7 311.8 227.7z" fill="#000000" data-fill-palette-color="accent"></path><path d="M351.2 434H318v-78H194v78h-27.9c-3.3 0-6 2.7-6 6s2.7 6 6 6h185c3.3 0 6-2.7 6-6S354.5 434 351.2 434z" fill="#000000" data-fill-palette-color="accent"></path></g></svg></g></svg></g></svg></g></svg></g><defs></defs></svg><rect width="395.52" height="86.01282632025298" fill="none" stroke="none" visibility="hidden"></rect></g></svg></g></svg>